<svg xmlns="http://www.w3.org/2000/svg" xmlns:xlink="http://www.w3.org/1999/xlink" width="163" height="49" viewBox="0 0 163 49"><defs><path id="wrcja" d="M1404.409 2735.213a1.045 1.045 0 1 1 .95-1.862s.54.274 1.549.79c1.009.506 2.49 1.303 4.397 2.123.959.415 1.991.928 3.169 1.39 1.177.46 2.451.956 3.812 1.486l4.404 1.503c1.575.454 3.217.98 4.955 1.441 3.489.869 7.287 1.756 11.365 2.355 2.027.365 4.136.565 6.28.836l3.267.26a53.74 53.74 0 0 0 3.332.191c4.485.25 9.13.097 13.825-.203 4.698-.307 9.435-.998 14.128-1.833 4.698-.83 9.327-1.992 13.829-3.28l3.346-1.018 3.278-1.11a59.148 59.148 0 0 0 3.22-1.142c1.058-.402 2.118-.774 3.15-1.19 4.128-1.671 8.082-3.377 11.715-5.235 1.847-.867 3.574-1.846 5.285-2.72 1.657-.966 3.3-1.83 4.837-2.732 3.061-1.824 5.847-3.54 8.265-5.148l3.384-2.265 2.826-2.002c1.73-1.187 3.015-2.216 3.938-2.866l1.406-1.013.035-.025a1.048 1.048 0 0 1 1.373 1.57l-1.209 1.278-1.472 1.52a35.401 35.401 0 0 1-2.061 1.988c-.795.72-1.652 1.548-2.631 2.394l-3.23 2.676c-1.17.934-2.47 1.856-3.813 2.869-1.341 1.018-2.85 1.942-4.376 2.982-1.549 1.004-3.199 1.993-4.916 3.002-1.756.935-3.535 1.977-5.435 2.908-1.9.931-3.857 1.88-5.903 2.746-2.02.924-4.142 1.733-6.293 2.568-4.338 1.568-8.869 3.067-13.58 4.183-4.704 1.123-9.512 2.148-14.383 2.748-4.864.615-9.748 1.074-14.566 1.145-4.814.113-9.553.028-14.117-.341a131.337 131.337 0 0 1-13.086-1.625c-4.139-.68-7.99-1.645-11.521-2.587-1.764-.482-3.436-1.012-5.035-1.48-1.577-.54-3.073-1.054-4.478-1.537-2.772-1.07-5.19-2.004-7.147-2.895-1.992-.826-3.444-1.604-4.477-2.08a8107.42 8107.42 0 0 0-1.591-.763zm150.086-8.772c-.156.557-.783.866-1.34.71-.557-.156-1.002-.773-.823-1.323l.006-.02.98-3.118c.3-1.052.704-2.07 1.036-3.111l1.034-3.114c.364-1.031.727-2.065 1.119-3.088.39-1.024.782-2.049 1.202-3.064.424-1.013.838-2.034 1.286-3.041.353-.794.706-1.59 1.074-2.38-.71.098-1.421.188-2.133.268-1.936.22-3.883.36-5.829.455a42.977 42.977 0 0 1-8.78-.48c-.971-.195-1.956-.336-2.924-.65l-.022-.008c-.323-.105-.567-.428-.673-.778-.173-.58.174-1.249.753-1.422 1.924-.577 3.83-.883 5.735-1.137a66.54 66.54 0 0 1 5.708-.469l2.856-.108c.953-.038 1.907-.048 2.86-.081.953-.036 1.91-.031 2.864-.056l2.87-.043.313-.005a1.894 1.894 0 0 1 1.538 3.034 72.159 72.159 0 0 0-3.614 5.22 64.206 64.206 0 0 0-1.6 2.757c-.493.94-.98 1.887-1.434 2.85-.89 1.934-1.699 3.91-2.358 5.937a77.947 77.947 0 0 0-.924 3.06c-.25 1.022-.513 2.057-.71 3.128-.005.03-.062.046-.07.077z"/></defs><g><g transform="translate(-1403 -2700)"><use fill="#f68b1f" xlink:href="#wrcja"/></g></g></svg>