<svg xmlns="http://www.w3.org/2000/svg" xmlns:xlink="http://www.w3.org/1999/xlink" width="273" height="271" viewBox="0 0 273 271"><defs><path id="up17a" d="M1066.294 6934.19c4.349 22.58-10.428 44.412-33.006 48.761l-157.481 30.342c-2.66.513-5.312.76-7.924.76-19.56 0-37-13.848-40.836-33.767l-30.344-157.48c-4.292-22.286 10.048-43.843 32.132-48.584.053-.088 3.548-5.853 0 0 6.846-11.294 19.253-18.839 33.424-18.839h64.31l-96.858 18.66 96.857-18.66 60.624-11.68c2.66-.512 5.31-.76 7.922-.76 0 0-12.64 0 0 0s24.395 5.783 32.166 15.251c14.35 5.777 24.479 19.83 24.479 36.247v64.31zm-39.02-175.998zm-204.073 186.69c0 21.572 17.485 39.059 39.058 39.059-21.573 0-39.058-17.487-39.058-39.058zm189.502 39.059c21.57 0 39.056-17.487 39.056-39.058 0 21.57-17.486 39.058-39.056 39.058z"/></defs><g><g transform="translate(-795 -6743)"><use fill="#fff3e6" xlink:href="#up17a"/></g></g></svg>