<svg xmlns="http://www.w3.org/2000/svg" xmlns:xlink="http://www.w3.org/1999/xlink" width="273" height="271" viewBox="0 0 273 271"><defs><path id="5kida" d="M1384.165 6744.222c22.084 4.74 36.424 26.298 32.131 48.585l-30.343 157.479c-3.837 19.919-21.276 33.767-40.837 33.767-2.611 0-5.263-.247-7.923-.76l-157.482-30.342c-22.578-4.349-37.354-26.181-33.005-48.76l14.535-75.44v86.132c0 21.57 17.485 39.058 39.055 39.058-21.57 0-39.055-17.487-39.055-39.058V6764.44c0-16.417 10.129-30.47 24.478-36.247 7.772-9.468 19.526-15.25 32.166-15.25 12.64 0 0 0 0 0 2.612 0 5.262.247 7.922.76l60.624 11.679h-86.135 150.445c14.171 0 26.578 7.546 33.424 18.84-3.575-5.899 0 0 0 0zm-198.446-16.028z"/></defs><g><g transform="translate(-1145 -6713)"><use fill="#fff3e6" xlink:href="#5kida"/></g></g></svg>