<svg xmlns="http://www.w3.org/2000/svg" xmlns:xlink="http://www.w3.org/1999/xlink" width="28" height="24" viewBox="0 0 28 24"><defs><path id="2kaza" d="M1434.279 106.344a7.985 7.985 0 0 1-4.892 3.746 8.022 8.022 0 0 1-5.792-.634l.239.413a.524.524 0 1 1-.909.525l-.644-1.117a9.457 9.457 0 0 1-4.285 1.026c-3.283 0-6.476-1.698-8.228-4.733a9.482 9.482 0 0 1-1.147-6.247l.005-.052 1.603-11.156a.525.525 0 0 1 .717-.41l4.096 1.661a.525.525 0 0 1-.395.973l-3.475-1.411-1.497 10.425a.52.52 0 0 1-.008.077 8.43 8.43 0 0 0 1.01 5.616c2.237 3.875 7.115 5.298 11.079 3.322l-.88-1.524-7.123-1.91a.524.524 0 1 1 .272-1.012l6.109 1.636-1.942-3.363-4.941-1.324a.525.525 0 0 1 .271-1.014l3.928 1.052-1.531-2.65-2.976-.798a.524.524 0 1 1 .272-1.013l1.962.525-1.45-2.512a.525.525 0 0 1 .908-.524l1.45 2.512.526-1.963a.524.524 0 0 1 1.014.272l-.797 2.976 1.53 2.651 1.053-3.928a.524.524 0 1 1 1.013.272l-1.324 4.941 1.942 3.364 1.637-6.11a.524.524 0 1 1 1.013.272l-1.908 7.122.88 1.525a8.405 8.405 0 0 0 3.499-4.854 8.365 8.365 0 0 0-.836-6.402 8.437 8.437 0 0 0-4.339-3.675l-2.351-.954a.524.524 0 1 1 .394-.973l2.374.964.01.004a9.49 9.49 0 0 1 4.82 4.109 9.406 9.406 0 0 1 1.27 4.83l.683-1.182-.66-2.465a.524.524 0 1 1 1.013-.272l.39 1.452 1.115-1.933a.525.525 0 0 1 .909.524l-1.116 1.933 1.451-.388a.524.524 0 1 1 .272 1.013l-2.465.66-1.167 2.02 3.102-.83a.524.524 0 1 1 .272 1.013l-4.216 1.13a9.506 9.506 0 0 1-1.203 2.536l4.725-1.267a.524.524 0 1 1 .272 1.014l-6.141 1.645a9.47 9.47 0 0 1-.981.857c.011.006.023.011.034.018a6.98 6.98 0 0 0 5.323.706 6.94 6.94 0 0 0 4.253-3.257 6.994 6.994 0 0 0 .838-4.659.517.517 0 0 1-.008-.073l-1.242-8.643-5.574 2.241a.524.524 0 1 1-.392-.973l6.195-2.49a.524.524 0 0 1 .715.412l1.346 9.366a.461.461 0 0 1 .004.048 8.047 8.047 0 0 1-.973 5.296zm-16.958-15.7a.527.527 0 0 1-.524.526.526.526 0 0 1-.37-.896.528.528 0 0 1 .74 0 .526.526 0 0 1 .154.37zm14.345 4.968a.524.524 0 0 1-.733-.116l-.003-.004a.525.525 0 0 1 .849-.617l.003.004a.525.525 0 0 1-.116.733z"/></defs><g><g transform="translate(-1408 -87)"><use fill="#f68b1f" xlink:href="#2kaza"/></g></g></svg>