<svg xmlns="http://www.w3.org/2000/svg" xmlns:xlink="http://www.w3.org/1999/xlink" width="20" height="26" viewBox="0 0 20 26"><defs><path id="pcrba" d="M1562.931 101.268v6.75a.481.481 0 0 1-.703.426l-9.013-4.69-9.012 4.69a.48.48 0 0 1-.703-.426V93.324a.481.481 0 1 1 .962 0v13.901l8.531-4.44a.482.482 0 0 1 .445 0l8.531 4.44v-5.957a.48.48 0 0 1 .962 0zm0-16.915v13.292a.48.48 0 0 1-.962 0v-12.81h-17.507v4.617a.48.48 0 0 1-.962 0v-5.099a.48.48 0 0 1 .48-.48h18.47a.48.48 0 0 1 .481.48zm-3.672 8.491l-2.672 2.606.632 3.678a.481.481 0 0 1-.698.507l-3.304-1.736-3.303 1.738a.48.48 0 0 1-.698-.507l.63-3.678-2.674-2.605a.48.48 0 0 1 .267-.82l3.693-.538 1.65-3.347a.481.481 0 0 1 .863 0l1.653 3.346 3.694.536a.481.481 0 0 1 .267.82zm-1.37-.008l-2.979-.432a.48.48 0 0 1-.362-.263l-1.333-2.7-1.332 2.7a.482.482 0 0 1-.362.264l-2.98.433 2.157 2.101a.48.48 0 0 1 .138.426l-.508 2.967 2.665-1.402a.48.48 0 0 1 .447 0l2.666 1.4-.51-2.967a.481.481 0 0 1 .138-.425zm-13.427-1.428a.484.484 0 0 1-.481.481.483.483 0 0 1-.34-.821.485.485 0 0 1 .68 0c.09.09.14.214.14.34zm18.47 8a.484.484 0 0 1-.482.481.484.484 0 0 1-.34-.821.485.485 0 0 1 .68 0c.09.09.141.213.141.34z"/></defs><g><g transform="translate(-1543 -83)"><use fill="#f68b1f" xlink:href="#pcrba"/></g></g></svg>