<svg xmlns="http://www.w3.org/2000/svg" xmlns:xlink="http://www.w3.org/1999/xlink" width="22" height="19" viewBox="0 0 22 19"><defs><path id="a6dga" d="M1646 7861.33v2.463c-.002.662-.884 1.182-2.2 1.57v2.3a.76.76 0 0 1-.072.317c.757.301 1.14.66 1.166 1.092h.006v2.46c-.004 1.172-2.75 1.898-5.8 2.238-.023.004-.043.013-.067.013-.007 0-.013-.003-.02-.003-.588.063-1.186.113-1.777.15-.012 0-.023.005-.036.005-.007 0-.013-.004-.02-.004-.75.044-1.49.067-2.18.067-.692 0-1.43-.023-2.181-.067-.007 0-.012.004-.02.004-.012 0-.023-.005-.035-.006a40.633 40.633 0 0 1-1.778-.149c-.007 0-.013.004-.02.004-.023 0-.044-.01-.066-.013-3.051-.34-5.797-1.067-5.8-2.237v-2.461h.005a.73.73 0 0 1 .049-.22c-.716-.33-1.153-.724-1.154-1.19v-2.461h.004c.035-.593.755-1.057 2.196-1.412v-2.46h.005a.751.751 0 0 1 .033-.178c-1.337-.39-2.236-.912-2.238-1.582v-2.462h.006c.131-2.05 8.888-2.111 9.894-2.111 1.006 0 9.762.06 9.894 2.111h.006v2.461a.775.775 0 0 1-.08.33c1.493.36 2.24.829 2.276 1.432zm-2.933 6.332v-1.456a5.6 5.6 0 0 1-1.1.485v1.677c.421-.16.742-.324.935-.485l.125-.106c.025-.04.04-.08.04-.115zm-7.57 1.728c.08-.002.158-.007.236-.009v-1.758c-.367.017-.736.027-1.105.034h-.059l-.302.005v1.758l.398-.005.16-.002c.228-.006.45-.014.672-.023zm-2.177.03h.213v-1.758l-.302-.004h-.058c-.37-.008-.739-.018-1.106-.035v1.758a74.37 74.37 0 0 0 .657.024c.166.006.333.009.5.012.033 0 .064 0 .096.002zm-6.584-.77c.283.075.594.147.93.215v-1.716a17.7 17.7 0 0 1-1.1-.243v1.699l.036.01.134.036zm7.536 2.877c-.369-.006-.738-.017-1.106-.033v1.757c.471.023.96.035 1.467.041v-1.76c-.1 0-.202-.002-.302-.004h-.059zm1.397.001c-.1.001-.202.002-.303.005v1.758c.507-.005.996-.018 1.467-.04v-1.757c-.367.015-.737.027-1.106.033l-.058.001zm1.897-.075v1.755c.382-.025.748-.057 1.1-.092v-1.748c-.36.034-.728.063-1.1.085zm1.834 1.579c.387-.048.754-.103 1.1-.162v-1.727c-.355.055-.722.105-1.1.15zm1.833-.296c.406-.083.773-.17 1.1-.261v-1.7c-.342.088-.71.17-1.1.244zm-13.567-1.96v1.699c.327.09.695.178 1.1.26v-1.716a18.4 18.4 0 0 1-1.1-.243zm1.834 2.094c.345.061.712.115 1.1.162v-1.74a28.907 28.907 0 0 1-1.1-.148zm1.833.246c.352.035.72.067 1.1.092v-1.754c-.372-.023-.74-.052-1.1-.086zm0-3.779v-1.753c-.372-.023-.74-.053-1.1-.085v1.747c.026 0 .053.005.079.008.037.003.074.008.111.01.298.028.602.053.91.073zm-2.933-2.063V7869c.345.058.712.113 1.1.16v-1.738a32.093 32.093 0 0 1-1.1-.15zm8.47 2.034c.238-.019.47-.04.696-.062v-1.748c-.36.033-.728.063-1.1.085v1.755c.082-.006.164-.01.245-.017l.16-.013zm2.53-.307v-1.727c-.355.054-.722.105-1.1.149v1.739c.387-.048.754-.103 1.1-.16zm.733-.136c.406-.083.773-.17 1.1-.26v-1.699c-.342.088-.71.168-1.1.243zm-4.933-3.322l.533.007v-1.757l-.303-.005h-.058c-.369-.007-.738-.019-1.105-.036v1.757l.042.002c.265.013.534.023.81.03l.08.002zm-8.236-4.926a13.912 13.912 0 0 0 .702.156v-1.717c-.389-.074-.757-.156-1.1-.243v1.7c.127.033.259.07.398.104zm6.208-1.053a37.84 37.84 0 0 1-1.106-.033v1.755c.483.023.974.036 1.467.04v-1.757l-.302-.003-.059-.002zm1.397.002c-.1.002-.202.003-.302.003v1.758c.132-.002.265-.002.396-.005l.118-.001c.255-.007.506-.013.752-.023h.015l.185-.012v-1.755a39.62 39.62 0 0 1-1.106.033l-.058.002zm8.498.003v-1.456a5.517 5.517 0 0 1-1.1.484v1.673c.38-.14.678-.287.872-.433l.133-.098.01.002c.055-.062.085-.12.085-.172zm-3.667 1.337v-1.725c-.355.054-.722.105-1.1.148v1.738a23.88 23.88 0 0 0 1.1-.161zm1.833-.398v-1.695c-.342.087-.71.17-1.1.243v1.715c.402-.083.772-.17 1.1-.263zm-4.766-1.017v1.753c.379-.026.745-.058 1.1-.093v-1.746c-.361.034-.729.062-1.1.086zm-5.134 1.752v-1.752c-.372-.024-.74-.052-1.1-.086v1.747c.359.035.727.065 1.1.09zm-2.933-2.062v1.728c.04.007.079.015.12.019.203.034.41.065.622.095l.138.019c.072.009.147.016.22.026v-1.739a27.933 27.933 0 0 1-1.1-.148zm5.133 6.285v-1.753a33.752 33.752 0 0 1-1.1-.085v1.747l.03.003.143.015c.224.021.453.04.688.058l.148.011.091.004zm-2.488-.264c.21.032.43.061.655.09v-1.74a29.896 29.896 0 0 1-1.1-.149v1.726c.138.024.274.047.42.07l.025.003zm-2.279-2.167v1.692c.328.093.695.182 1.1.265v-1.715c-.389-.073-.757-.155-1.1-.242zm-1.833-.7v1.458c0 .01.004.022.006.033l.025.039c.12.194.493.413 1.069.626v-1.672a5.512 5.512 0 0 1-1.1-.485zm9.836 1.453l-.302.005v1.756c.494-.005.984-.019 1.466-.041v-1.756c-.367.017-.737.029-1.106.035l-.058.001zm4.831 1.342v-1.727c-.355.056-.722.105-1.1.148v1.74c.094-.012.19-.023.284-.036l.291-.04c.167-.025.33-.051.49-.078l.035-.007zm-2.478.303c.219-.016.431-.038.645-.06v-1.745c-.361.034-.729.062-1.1.085v1.752c.138-.01.28-.017.416-.028l.039-.004zm4.312-.698v-1.7c-.343.088-.711.169-1.1.243v1.717l.086-.017c.096-.02.189-.041.28-.062.197-.044.39-.09.573-.139l.16-.042zm-.288-4.242c-.022.013-.05.027-.072.041-.04.025-.085.049-.129.075-.038.02-.074.042-.115.063-.09.047-.19.092-.29.135l-.083.035c-.096.04-.195.078-.3.117l-.062.023c-.123.043-.25.085-.383.126l-.14.04c-.075.024-.153.045-.232.067-1.718.471-4.187.774-6.851.813a34.232 34.232 0 0 1-1.417-.003c-.46-.01-.916-.03-1.365-.055l-.007.001-.014-.002a34.31 34.31 0 0 1-1.818-.15s0 .002-.002.002l-.007-.002a26.088 26.088 0 0 1-2.836-.463c-.026-.007-.054-.012-.079-.017-.004.008-.004.014-.006.02.042.237.605.554 1.604.85 1.297.385 3.328.737 5.9.846l.397.014.332.01a38.407 38.407 0 0 0 2.19-.008c.134-.005.265-.012.396-.016 2.573-.109 4.603-.461 5.9-.847 1.007-.299 1.572-.616 1.605-.855-.042-.145-.474-.518-2.116-.86zm-18.407-3.354c.044.238.606.552 1.603.847 1.297.386 3.328.737 5.9.846.132.005.263.012.397.014a41.058 41.058 0 0 0 2.19.01c.112-.002.222-.005.331-.01.134-.002.266-.009.398-.014 2.572-.109 4.602-.46 5.9-.846.996-.295 1.559-.61 1.603-.847-.057-.525-3.115-1.439-9.161-1.439-6.046 0-9.104.914-9.161 1.439zm1.094 3.143v-1.685a5.513 5.513 0 0 1-1.1-.484v1.456c0 .2.387.457 1.1.713zm-1.096 4.94c.033.24.597.557 1.605.857 1.297.385 3.328.738 5.9.846l.397.015c.11.003.22.007.332.009a36.119 36.119 0 0 0 1.63.004l.272-.004c.084-.003.165-.006.248-.007 2.78-.087 4.967-.457 6.336-.863a6.615 6.615 0 0 0 1.085-.407c-1.23.256-2.683.433-4.233.52-.004 0-.006.003-.01.003h-.004a42.956 42.956 0 0 1-2.195.062c-.221 0-.447-.004-.676-.007a40.034 40.034 0 0 1-1.523-.056h-.004c-1.546-.086-2.964-.262-4.153-.507a7.547 7.547 0 0 1-.289-.06 2.696 2.696 0 0 1-.09-.018c-1.295-.285-2.334-.667-2.836-1.153-.006-.006-.014-.01-.02-.017-1.36.321-1.731.653-1.772.784zm.882 3.072l.005-.004.209.078v-1.677a5.686 5.686 0 0 1-1.1-.485v1.456c0 .178.31.403.886.632zm1.314 3.95v-1.684a5.513 5.513 0 0 1-1.1-.484v1.457c0 .198.387.456 1.1.712zm17.233-.711v-1.457a5.518 5.518 0 0 1-1.1.484v1.685c.714-.257 1.1-.514 1.1-.712zm-.951-2.992c-.033.022-.073.042-.108.065a6.253 6.253 0 0 1-.118.071l-.101.057c-.644.341-1.58.617-2.664.83l-.076.016c-.116.023-.232.043-.35.064a27.46 27.46 0 0 1-1.842.264c-.008.001-.015.005-.023.005l-.006-.002c-.585.066-1.193.117-1.822.152l-.005.001-.003-.001a34.526 34.526 0 0 1-2.197.064c-.152 0-.308-.002-.464-.004a36.606 36.606 0 0 1-1.735-.06h-.003c-1.84-.104-3.545-.335-4.88-.664l-.18-.045a8.117 8.117 0 0 1-.423-.116l-.034-.01c-.117-.036-.23-.071-.34-.107.071.235.631.541 1.601.827 1.298.385 3.328.738 5.9.847.132.004.264.011.4.015l.328.01a41.193 41.193 0 0 0 2.19-.01c.135-.004.266-.01.397-.015 2.573-.109 4.603-.46 5.9-.846 1.002-.296 1.565-.612 1.605-.85-.024-.089-.224-.31-.947-.558zm2.052-4.75v-1.457c-.293.178-.665.34-1.1.487v1.683c.713-.256 1.1-.513 1.1-.712z"/></defs><g><g transform="translate(-1624 -7855)"><use fill="#ee7e2c" xlink:href="#a6dga"/></g></g></svg>