<svg xmlns="http://www.w3.org/2000/svg" xmlns:xlink="http://www.w3.org/1999/xlink" width="7" height="28" viewBox="0 0 7 28"><defs><path id="c5exa" d="M1135.809 1971.632c.073 1.579-1.372 2.962-2.963 2.962-1.651 0-3.035-1.383-3.035-3.035 0-1.651 1.384-3.036 3.035-3.036a2.964 2.964 0 0 1 2.963 3.109zm-.206-22.707c.206.486.279.972.279 1.518-.073 1.518-.206 3.036-.28 4.554-.133 2.343-.279 4.687-.412 7.03-.073.765-.073 1.457-.073 2.21-.06 1.25-1.032 2.21-2.27 2.21-1.24 0-2.198-.899-2.271-2.137-.207-3.655-.413-7.237-.62-10.892-.073-.96-.133-1.93-.206-2.89 0-1.59.899-2.902 2.343-3.315 1.445-.34 2.89.352 3.51 1.712z"/></defs><g><g transform="translate(-1129 -1947)"><use fill="#fff" xlink:href="#c5exa"/></g></g></svg>