<svg xmlns="http://www.w3.org/2000/svg" xmlns:xlink="http://www.w3.org/1999/xlink" width="28" height="28" viewBox="0 0 28 28"><defs><path id="34a1a" d="M1688.768 104.021a.54.54 0 0 1-.537.537.54.54 0 0 1-.537-.537.536.536 0 0 1 1.074 0zm8.21-10.59l-3.168 10.742a.537.537 0 0 1-.515.385h-2.364a.537.537 0 0 1 0-1.074h1.962l2.851-9.668h-19.779l.46 1.558a.55.55 0 0 1 .026 0h3.9a.537.537 0 0 1 0 1.074h-3.61l2.076 7.036h7.038a.537.537 0 0 1 0 1.074h-7.44a.537.537 0 0 1-.515-.385l-3.168-10.742a.538.538 0 0 1 .515-.69h1.992V87.21c0-.296.24-.537.537-.537h5.54v-4.136c0-.296.24-.536.536-.536h9.883c.297 0 .537.24.537.536v10.206h2.19a.538.538 0 0 1 .516.689zm-10.071-.69v-4.994h-8.594v4.995zm6.291-9.667h-8.809v3.598h3.055c.296 0 .537.24.537.537v5.533h5.217zm1.23 22.988c0 .297-.241.537-.538.537h-2.855a1.99 1.99 0 0 1-1.764 2.9 1.99 1.99 0 0 1-1.765-2.9h-4.396a1.99 1.99 0 0 1-1.764 2.9 1.99 1.99 0 0 1-1.765-2.9h-2.665a.537.537 0 0 1-.515-.385l-4.451-15.092h-1.913a.537.537 0 0 1 0-1.074h2.314c.239 0 .448.157.516.385l4.45 15.092h16.573c.297 0 .537.24.537.537zm-12.17 1.45a.914.914 0 0 0-1.826 0 .914.914 0 0 0 1.826 0zm7.925 0a.914.914 0 0 0-1.826 0 .914.914 0 0 0 1.826 0zm-7.036-11.601c0 .14-.057.28-.157.38-.1.099-.239.157-.38.157a.544.544 0 0 1-.38-.158.542.542 0 0 1 0-.76.54.54 0 0 1 .76 0c.1.1.157.24.157.38z"/></defs><g><g transform="translate(-1669 -82)"><use fill="#f68b1f" xlink:href="#34a1a"/></g></g></svg>