<svg xmlns="http://www.w3.org/2000/svg" xmlns:xlink="http://www.w3.org/1999/xlink" width="21" height="24" viewBox="0 0 21 24"><defs><path id="vxaya" d="M1659.604 7692.152c.427.56.612 1.185.539 1.803-.073.616-.394 1.179-.932 1.635-.234.198-.471.386-.703.561-.34.266-.662.516-.95.795-.006.012-.016.016-.022.024-.83.731-1.813 1.023-2.925.882-.097-.01-.202-.032-.303-.048-1.638-.318-3.04-1.15-4.084-1.834-2.727-1.822-5.022-4.2-6.822-7.075-1.482-2.386-2.408-4.55-2.93-6.829-.212-.93-.465-2.334-.177-3.777a3.684 3.684 0 0 1 1.32-2.184l1.84-1.503c.006-.004.006-.004.011-.01.539-.415 1.137-.599 1.725-.524.587.074 1.116.4 1.526.94.278.338.543.695.796 1.043.125.177.26.357.391.529l1.154 1.53c.887 1.17.726 2.528-.41 3.445l-.454.373c-.401.33-.813.672-1.253.995.214.709.54 1.428 1.05 2.287 1.054 1.737 2.205 3.127 3.52 4.24.128.113.282.217.445.33.112.077.23.16.347.246l1.708-1.376c.546-.445 1.146-.634 1.738-.561.597.076 1.13.42 1.536.98zm-1.036.825l-2.329-3.087c-.004-.003-.004-.003-.008-.01-.13-.188-.352-.412-.65-.454-.304-.033-.588.137-.772.285l-1.85 1.496c-.091.074-.373.304-.772.251a1.001 1.001 0 0 1-.462-.187c-.018-.008-.036-.028-.054-.04a5.665 5.665 0 0 0-.446-.323 7.044 7.044 0 0 1-.552-.41c-1.426-1.208-2.671-2.707-3.8-4.575l-.003-.004c-.618-1.055-1.004-1.922-1.245-2.824l-.009-.047c-.053-.293-.08-.724.385-1.102.006-.01.016-.012.027-.018.465-.337.898-.688 1.354-1.062.156-.122.308-.25.464-.381.574-.46.631-.95.184-1.543l-1.154-1.523c-.134-.185-.27-.366-.4-.545a22.018 22.018 0 0 0-.761-1c-.004-.01-.009-.013-.012-.02-.136-.178-.36-.4-.662-.44-.246-.028-.511.062-.775.264l-1.844 1.49c-.448.361-.722.82-.84 1.397-.18.903-.131 1.887.17 3.189.485 2.127 1.36 4.159 2.758 6.419 1.698 2.706 3.861 4.952 6.426 6.663.938.622 2.199 1.366 3.618 1.642.071.016.148.024.22.036.752.091 1.355-.085 1.906-.566.341-.325.698-.607 1.047-.877.232-.182.448-.35.66-.533-.005.004-.005 0 0 0 .554-.467.616-.989.18-1.56z"/></defs><g><g transform="translate(-1640 -7674)"><use fill="#f68b1f" xlink:href="#vxaya"/></g></g></svg>