<svg xmlns="http://www.w3.org/2000/svg" xmlns:xlink="http://www.w3.org/1999/xlink" width="19" height="23" viewBox="0 0 19 23"><defs><path id="nbfxa" d="M1646.902 7608.935c-1.712-2.07-1.427-5.613-1.396-5.95.111-2.555 1.25-3.77 2.184-4.341.93-.564 1.9-.652 2.393-.652h.075c.899.024 1.704.249 2.393.675.925.568 2.046 1.78 2.157 4.318.031.337.316 3.88-1.397 5.95-.778.939-1.832 1.427-3.135 1.456h-.142c-1.304-.03-2.358-.517-3.132-1.456zm.894-.855c.557.675 1.308 1.014 2.287 1.022h.044c.983-.008 1.73-.347 2.29-1.022 1.415-1.703 1.104-4.942 1.1-4.976-.005-.01-.005-.025-.005-.038-.138-3.231-2.18-3.752-3.38-3.78h-.054c-.97 0-3.233.368-3.38 3.78 0 .01-.005.024-.005.038-.004.026-.307 3.28 1.103 4.976zm11.236 10.338a.638.638 0 0 1-.232.3c-.133.089-3.331 2.277-8.682 2.277-5.35 0-8.548-2.182-8.682-2.276a.611.611 0 0 1-.231-.3c-.236-.64-.231-1.91-.227-2.156v-.015c.004-.039.004-.077.004-.12.027-.942.085-3.143 2.016-3.855.013-.003.026-.009.044-.014 2.015-.55 3.674-1.784 3.691-1.8a.571.571 0 0 1 .837.16c.19.289.124.689-.147.89-.076.056-1.846 1.379-4.061 1.989-1.036.397-1.152 1.582-1.183 2.668 0 .043-.004.082-.004.118-.01.426.022 1.091.093 1.471.725.44 3.567 1.958 7.846 1.958 4.296 0 7.12-1.513 7.841-1.95.071-.381.098-1.046.094-1.473-.005-.039-.005-.078-.005-.119-.031-1.086-.147-2.27-1.183-2.67-2.215-.61-3.985-1.929-4.061-1.987a.669.669 0 0 1-.147-.893.575.575 0 0 1 .837-.156c.017.013 1.685 1.249 3.691 1.8.014.005.031.008.045.012 1.93.708 1.988 2.91 2.014 3.856 0 .042.005.079.005.118v.017c.004.245.009 1.516-.213 2.15z"/></defs><g><g transform="translate(-1641 -7598)"><use fill="#f68b1f" xlink:href="#nbfxa"/></g></g></svg>